<svg xmlns="http://www.w3.org/2000/svg" version="1.1" xmlns:xlink="http://www.w3.org/1999/xlink" xmlns:svgjs="http://svgjs.dev/svgjs" width="1440" height="560" preserveAspectRatio="none" viewBox="0 0 1440 560"><g mask="url(&quot;#SvgjsMask1006&quot;)" fill="none"><rect width="1440" height="560" x="0" y="0" fill="rgba(178, 195, 185, 1)"></rect><path d="M0,544.417C99.531,532.18,167.946,442.746,239.168,372.152C297.812,314.025,334.339,243.001,376.011,171.718C422.811,91.663,509.466,20.403,498.643,-71.694C487.827,-163.732,380.079,-206.871,322.946,-279.835C261.83,-357.886,236.853,-465.202,151.301,-515.283C56.872,-570.56,-59.709,-591.123,-166.252,-566.203C-275.266,-540.705,-382.582,-476.222,-436.108,-377.89C-487.289,-283.867,-437.323,-170.283,-440.023,-63.266C-442.334,28.352,-478.777,118.606,-450.837,205.89C-421.123,298.716,-358.144,377.482,-280.204,436.006C-198.464,497.384,-101.455,556.89,0,544.417" fill="#88a293"></path><path d="M1440 1092.2530000000002C1533.846 1064.304 1605.867 998.902 1685.011 941.244 1759.144 887.2370000000001 1837.708 841.071 1889.0810000000001 765.0889999999999 1947.1779999999999 679.162 1989.9070000000002 583.414 1996.917 479.927 2005.0149999999999 360.382 2020.033 214.92700000000002 1931.843 133.81599999999997 1842.401 51.553 1697.761 106.59500000000003 1576.932 93.654 1481.028 83.382 1389.478 47.03399999999999 1294.828 65.58999999999997 1194.354 85.28800000000001 1104.343 135.22899999999998 1026.372 201.589 938.326 276.524 852.181 359.98400000000004 818.849 470.692 782.967 589.87 789.134 720.572 835.319 836.149 882.714 954.754 961.393 1071.911 1079.003 1121.723 1192.474 1169.7820000000002 1321.897 1127.426 1440 1092.2530000000002" fill="#dce4df"></path></g><defs><mask id="SvgjsMask1006"><rect width="1440" height="560" fill="#ffffff"></rect></mask></defs></svg>